<?xml version="1.0" encoding="UTF-8"?>
<svg width="183px" height="58px" viewBox="0 0 183 58" version="1.1" xmlns="http://www.w3.org/2000/svg" xmlns:xlink="http://www.w3.org/1999/xlink">
    <!-- Generator: sketchtool 41.2 (35397) - http://www.bohemiancoding.com/sketch -->
    <title>5ACD5A95-237F-4131-AF1C-E1138DC851E9</title>
    <desc>Created with sketchtool.</desc>
    <defs></defs>
    <g id="Page-1" stroke="none" stroke-width="1" fill="none" fill-rule="evenodd">
        <g id="Landing" transform="translate(-816.000000, -191.000000)" fill="#FFFFFF">
            <g id="Contoso" transform="translate(816.000000, 191.000000)">
                <path d="M69,24.029703 C68.666665,24.5577584 68.100004,25.1683134 67.3,25.8613861 C66.499996,26.5544589 65.566672,27.2310198 64.5,27.8910891 C63.433328,28.5511584 62.2500065,29.1782149 60.95,29.7722772 C59.6499935,30.3663396 58.33334,30.8613842 57,31.2574257 C56.733332,34.0297168 56.133338,36.9339782 55.2,39.970297 C54.266662,43.0066158 53.13334,45.7953668 51.8,48.3366337 C50.46666,50.8779005 49.000008,52.9570876 47.4,54.5742574 C45.799992,56.1914272 44.200008,57 42.6,57 C41.93333,57 41.0500055,56.8019822 39.95,56.4059406 C38.8499945,56.009899 37.7833385,55.3828426 36.75,54.5247525 C35.7166615,53.6666624 34.833337,52.6270688 34.1,51.4059406 C33.366663,50.1848124 33,48.7161802 33,47 C33,45.2838198 33.199998,43.3366446 33.6,41.1584158 C34.000002,38.9801871 34.5499965,36.7854896 35.25,34.5742574 C35.9500035,32.3630252 36.8166615,30.2013307 37.85,28.0891089 C38.8833385,25.9768871 39.999994,24.0957178 41.2,22.4455446 C42.400006,20.7953713 43.6833265,19.4752525 45.05,18.4851485 C46.4166735,17.4950446 47.833326,17 49.3,17 C50.033337,17 50.7499965,17.2475223 51.45,17.7425743 C52.1500035,18.2376262 52.83333,18.8646827 53.5,19.6237624 C54.16667,20.3828421 54.7833305,21.2079163 55.35,22.0990099 C55.9166695,22.9901035 56.433331,23.7986762 56.9,24.5247525 L57.2,26.8019802 C58.933342,26.6699663 60.6499915,26.3729396 62.35,25.9108911 C64.0500085,25.4488426 66.266653,24.8217861 69,24.029703 Z M49.5,32.3465347 C48.499995,32.1485139 48,31.1584248 48,29.3762376 C48,28.6501614 48.0833325,27.8250871 48.25,26.9009901 C48.4166675,25.9768931 48.599999,25.0198069 48.8,24.029703 C47.866662,25.1518208 46.9166715,26.7854678 45.95,28.9306931 C44.9833285,31.0759183 44.1166705,33.3696248 43.35,35.8118812 C42.5833295,38.2541376 41.9500025,40.6303515 41.45,42.9405941 C40.9499975,45.2508366 40.7,47.099003 40.7,48.4851485 C40.7,50.0693149 41.03333,50.8613861 41.7,50.8613861 C42.36667,50.8613861 43.1499955,50.3168371 44.05,49.2277228 C44.9500045,48.1386084 45.833329,46.7029792 46.7,44.9207921 C47.566671,43.138605 48.399996,41.1419252 49.2,38.9306931 C50.000004,36.7194609 50.633331,34.4917604 51.1,32.2475248 C50.766665,32.3135317 50.4500015,32.3465347 50.15,32.3465347 L49.5,32.3465347 Z" id="Combined-Shape"></path>
                <path d="M39.9912495,30.7058824 C40.0583357,31.4417569 39.7396812,32.6458971 39.0352765,34.3183391 C38.3308719,35.9907811 37.3413658,37.8304398 36.0667288,39.8373702 C34.7920918,41.8443007 33.2994471,43.9180977 31.5887501,46.0588235 C29.878053,48.1995493 28.0667539,50.1562772 26.1547983,51.9290657 C24.2428428,53.7018543 22.3309159,55.1568571 20.4189603,56.2941176 C18.5070048,57.4313782 16.7124769,58 15.035323,58 C13.6265136,58 12.1506402,57.7156891 10.6076586,57.1470588 C9.06467689,56.5784285 7.60557481,55.7422201 6.23030854,54.6384083 C4.85504227,53.5345966 3.64750951,52.196663 2.60767403,50.6245675 C1.56783856,49.052472 0.846673164,47.2629858 0.444156207,45.2560554 C-0.0925330696,42.8477388 -0.142846935,40.0715267 0.293213103,36.9273356 C0.72927314,33.7831446 1.55106627,30.5219315 2.75861714,27.1435986 C3.96616801,23.7652657 5.47558396,20.4538801 7.28691027,17.2093426 C9.09823658,13.964805 11.0772486,11.0715237 13.2240057,8.52941176 C15.3707628,5.98729986 17.6348867,3.93022701 20.0164454,2.35813149 C22.3980041,0.786035969 24.7627557,0 27.1107713,0 C28.1170637,0 29.3078252,0.284310882 30.6830914,0.852941176 C32.0583577,1.42157147 33.3832895,2.1741591 34.6579265,3.11072664 C35.9325635,4.04729419 37.0226973,5.10091687 37.9283604,6.2716263 C38.8340236,7.44233573 39.2868484,8.62975176 39.2868484,9.83391003 C39.2868484,11.4394544 38.7333959,13.3627339 37.6264742,15.6038062 C36.5195526,17.8448786 35.1778495,20.0022964 33.6013248,22.0761246 C32.0248,24.1499527 30.3979851,25.9059905 28.7208311,27.3442907 C27.0436771,28.7825908 25.6348889,29.5017301 24.4944242,29.5017301 C25.1652858,28.5651626 25.8864511,27.3442982 26.657942,25.8391003 C27.4294328,24.3339025 28.1841408,22.7116581 28.9220885,20.9723183 C29.6600363,19.2329786 30.3308878,17.4769408 30.9346633,15.7041522 C31.5384387,13.9313637 31.9744922,12.3425676 32.2428368,10.9377163 C32.5111815,9.53286495 32.5614953,8.37889725 32.3937799,7.47577855 C32.2260645,6.57265984 31.7396972,6.12110727 30.9346633,6.12110727 C28.5866477,6.12110727 26.1548109,7.2583508 23.6390799,9.53287197 C21.1233489,11.8073931 18.7753686,14.6672261 16.5950684,18.1124567 C14.4147682,21.5576874 12.5363839,25.2871772 10.9598591,29.3010381 C9.38333439,33.314899 8.3602858,37.0443888 7.89068268,40.4896194 C7.42107957,43.93485 7.63910632,46.794683 8.54476947,49.0692042 C9.45043262,51.3437253 11.2785031,52.4809689 14.0290356,52.4809689 C15.5049311,52.4809689 17.3833154,51.7116571 19.6642448,50.1730104 C21.9451742,48.6343637 24.3266972,46.7445325 26.8088851,44.5034602 C29.291073,42.2623879 31.7061385,39.8875558 34.0541541,37.3788927 C36.4021697,34.8702297 38.3811817,32.6459151 39.9912495,30.7058824 L39.9912495,30.7058824 Z"></path>
                <path d="M81.743169,17.254902 C82.0103228,17.254902 82.4444411,17.3856196 83.045537,17.6470588 C83.6466328,17.908498 84.2978103,18.2516319 84.9990888,18.6764706 C85.7003674,19.1013093 86.3515448,19.5751608 86.9526407,20.0980392 C87.5537366,20.6209176 87.9878549,21.1764676 88.2550086,21.7647059 C87.7207012,22.6797431 87.03613,24.0359387 86.2012746,25.8333333 C85.3664192,27.6307279 84.4981826,29.6731912 83.5965388,31.9607843 C82.6948949,34.2483775 81.8433552,36.6503142 81.041894,39.1666667 C80.2404328,41.6830191 79.6393459,44.1503147 79.2386153,46.5686275 C80.2404418,45.4575108 81.3257376,44.1176549 82.4945351,42.5490196 C83.6633327,40.9803843 84.7653253,39.3954328 85.800546,37.7941176 C86.8357667,36.1928025 87.7707907,34.6568701 88.6056462,33.1862745 C89.4405016,31.7156789 90.0248916,30.5228804 90.3588337,29.6078431 C90.8931412,29.6732029 91.0935035,30.3104515 90.9599266,31.5196078 C90.8263498,32.7287642 90.4590189,34.1993377 89.857923,35.9313725 C89.2568271,37.6634074 88.5054685,39.5424735 87.6038247,41.5686275 C86.7021808,43.5947814 85.7671568,45.4575078 84.7987245,47.1568627 C83.8302923,48.8562176 82.8785714,50.2777721 81.9435333,51.4215686 C81.0084953,52.5653652 80.2404398,53.1372549 79.6393439,53.1372549 C79.038248,53.1372549 78.3035863,52.9248387 77.4353367,52.5 C76.5670871,52.0751613 75.7322442,51.5686304 74.930783,50.9803922 C74.1293218,50.3921539 73.4447506,49.7712451 72.8770489,49.1176471 C72.3093473,48.464049 72.0255007,47.908499 72.0255007,47.4509804 C72.0255007,46.4052235 72.1757724,45.1634059 72.4763204,43.7254902 C72.7768683,42.2875745 73.160896,40.7516422 73.6284151,39.1176471 C74.0959341,37.483652 74.6469304,35.817002 75.2814205,34.1176471 C75.9159106,32.4182922 76.5336943,30.7516422 77.1347902,29.1176471 C75.9325984,30.817002 74.6302435,32.9084843 73.2276865,35.3921569 C71.8251294,37.8758294 70.4893808,40.3921441 69.2204006,42.9411765 C67.9514203,45.4902088 66.8494277,47.8594662 65.9143897,50.0490196 C64.9793516,52.238573 64.3782647,53.8888833 64.111111,55 C63.5768036,55 62.9590198,54.7385647 62.2577413,54.2156863 C61.5564627,53.6928078 60.8885884,53.071899 60.2540983,52.3529412 C59.6196082,51.6339833 59.0853088,50.8823569 58.651184,50.0980392 C58.2170591,49.3137216 58,48.6601333 58,48.1372549 C58,46.4379 58.2003623,44.4444559 58.6010929,42.1568627 C59.0018235,39.8692696 59.5194261,37.5000123 60.1539162,35.0490196 C60.7884063,32.598027 61.4896743,30.1634108 62.2577413,27.745098 C63.0258083,25.3267853 63.76047,23.1862838 64.4617485,21.3235294 C65.1630271,19.460775 65.8142045,17.9411824 66.4153004,16.7647059 C67.0163963,15.5882294 67.4839083,15 67.8178505,15 C68.4189464,15 69.0868207,15.1143779 69.8214934,15.3431373 C70.5561662,15.5718966 71.2574342,15.8333319 71.9253185,16.127451 C72.5932029,16.4215701 73.1775929,16.7483642 73.6785061,17.1078431 C74.1794194,17.4673221 74.5300534,17.7777765 74.7304187,18.0392157 C74.3296881,18.6274539 73.8120855,19.5751569 73.1775954,20.8823529 C72.5431053,22.189549 71.8585341,23.7745005 71.1238614,25.6372549 C70.3891886,27.5000093 69.6211332,29.6078314 68.819672,31.9607843 C68.0182108,34.3137373 67.283549,36.7973725 66.6156647,39.4117647 C67.8178565,36.7973725 69.1869988,34.1666799 70.7231328,31.5196078 C72.2592667,28.8725358 73.7619839,26.5032784 75.2313294,24.4117647 C76.7006749,22.320251 78.0364236,20.6045819 79.2386153,19.2647059 C80.4408071,17.9248299 81.27565,17.254902 81.743169,17.254902 L81.743169,17.254902 Z" id="Path"></path>
                <path d="M86.4048035,13.3207885 C84.902889,13.1893661 83.7438201,12.7293946 82.9275622,11.9408602 C82.1113043,11.1523258 81.8337808,10.593789 82.0949834,10.265233 C83.400996,10.1995218 85.0987869,10.0845289 87.1884071,9.9202509 C89.2780273,9.75597289 92.4450605,9.60812491 96.6896015,9.47670251 C97.669111,6.91396568 98.5506563,4.86052146 99.3342639,3.31630824 C100.117871,1.77209503 100.672918,1 100.999422,1 C101.521827,1 102.142173,1.11499288 102.86048,1.34498208 C103.578787,1.57497128 104.280759,1.87066725 104.966415,2.23207885 C105.652072,2.59349046 106.272418,2.95489664 106.827474,3.31630824 C107.382529,3.67771985 107.725352,3.98984337 107.855954,4.25268817 C107.529451,4.58124418 107.121328,5.15620856 106.631573,5.97759857 C106.141818,6.79898858 105.603096,7.86677957 105.01539,9.18100358 C108.606925,9.11529238 111.773958,9.09886483 114.516585,9.13172043 C117.259211,9.16457603 119.022302,9.34527912 119.805909,9.67383513 C120.132413,9.80525753 120.442586,10.1009535 120.736439,10.5609319 C121.030292,11.0209103 121.275165,11.5137369 121.471067,12.0394265 C121.666969,12.5651161 121.813893,13.0743703 121.911844,13.5672043 C122.009795,14.0600383 122.02612,14.4050169 121.96082,14.6021505 C121.307813,14.4050169 120.360968,14.2243138 119.120256,14.0600358 C117.879544,13.8957578 116.426627,13.780765 114.761461,13.7150538 C113.096295,13.6493426 111.267905,13.5836323 109.276235,13.5179211 C107.284566,13.4522099 105.276602,13.4193548 103.252282,13.4193548 C102.338073,15.7849581 101.374903,18.4133667 100.362744,21.3046595 C99.3505839,24.1959523 98.3547642,27.1364845 97.3752547,30.1263441 C96.3957452,33.1162037 95.4815501,36.0895909 94.6326419,39.046595 C93.7837337,42.003599 93.0654375,44.6977178 92.4777318,47.1290323 C93.5878426,45.9462306 94.7632363,44.5498886 96.0039483,42.9399642 C97.2446603,41.3300397 98.420054,39.736567 99.5301648,38.1594982 C100.640276,36.5824294 101.61977,35.1039496 102.468679,33.7240143 C103.317587,32.3440791 103.905284,31.2270055 104.231787,30.3727599 C104.884793,30.5041823 105.097017,31.2105671 104.868465,32.4919355 C104.639912,33.7733039 104.117515,35.3667766 103.301257,37.2724014 C102.484999,39.1780263 101.48918,41.2314705 100.313768,43.4327957 C99.1383571,45.6341209 97.9466384,47.65471 96.7385767,49.4946237 C95.5305151,51.3345373 94.4040961,52.8787273 93.359286,54.1272401 C92.3144759,55.375753 91.53088,56 91.008475,56 C90.7472725,56 90.2901749,55.7535867 89.6371686,55.2607527 C88.9841623,54.7679187 88.3311657,54.1272441 87.6781594,53.3387097 C87.0251531,52.5501753 86.4537812,51.7287976 85.9640264,50.874552 C85.4742717,50.0203064 85.2620478,49.2646389 85.3273484,48.6075269 C85.588551,46.2419237 86.0619735,43.5642324 86.7476301,40.5743728 C87.4332867,37.5845131 88.2332074,34.5289881 89.1474163,31.4077061 C90.0616251,28.2864241 91.0411199,25.1816164 92.08593,22.09319 C93.1307401,19.0047635 94.1428847,16.1463692 95.1223942,13.5179211 L91.4002768,13.5179211 L89.1474163,13.5179211 C88.5597106,13.5179211 88.0699632,13.5014936 87.6781594,13.468638 C87.2863556,13.4357824 86.8619079,13.3864997 86.4048035,13.3207885 L86.4048035,13.3207885 Z" id="Path"></path>
                <path d="M136,24.029703 C135.666665,24.5577584 135.100004,25.1683134 134.3,25.8613861 C133.499996,26.5544589 132.566672,27.2310198 131.5,27.8910891 C130.433328,28.5511584 129.250006,29.1782149 127.95,29.7722772 C126.649993,30.3663396 125.33334,30.8613842 124,31.2574257 C123.733332,34.0297168 123.133338,36.9339782 122.2,39.970297 C121.266662,43.0066158 120.13334,45.7953668 118.8,48.3366337 C117.46666,50.8779005 116.000008,52.9570876 114.4,54.5742574 C112.799992,56.1914272 111.200008,57 109.6,57 C108.93333,57 108.050005,56.8019822 106.95,56.4059406 C105.849994,56.009899 104.783338,55.3828426 103.75,54.5247525 C102.716661,53.6666624 101.833337,52.6270688 101.1,51.4059406 C100.366663,50.1848124 100,48.7161802 100,47 C100,45.2838198 100.199998,43.3366446 100.6,41.1584158 C101.000002,38.9801871 101.549996,36.7854896 102.25,34.5742574 C102.950003,32.3630252 103.816662,30.2013307 104.85,28.0891089 C105.883338,25.9768871 106.999994,24.0957178 108.2,22.4455446 C109.400006,20.7953713 110.683327,19.4752525 112.05,18.4851485 C113.416674,17.4950446 114.833326,17 116.3,17 C117.033337,17 117.749996,17.2475223 118.45,17.7425743 C119.150003,18.2376262 119.83333,18.8646827 120.5,19.6237624 C121.16667,20.3828421 121.783331,21.2079163 122.35,22.0990099 C122.916669,22.9901035 123.433331,23.7986762 123.9,24.5247525 L124.2,26.8019802 C125.933342,26.6699663 127.649991,26.3729396 129.35,25.9108911 C131.050009,25.4488426 133.266653,24.8217861 136,24.029703 Z M116.5,32.3465347 C115.499995,32.1485139 115,31.1584248 115,29.3762376 C115,28.6501614 115.083333,27.8250871 115.25,26.9009901 C115.416668,25.9768931 115.599999,25.0198069 115.8,24.029703 C114.866662,25.1518208 113.916672,26.7854678 112.95,28.9306931 C111.983329,31.0759183 111.116671,33.3696248 110.35,35.8118812 C109.58333,38.2541376 108.950003,40.6303515 108.45,42.9405941 C107.949998,45.2508366 107.7,47.099003 107.7,48.4851485 C107.7,50.0693149 108.03333,50.8613861 108.7,50.8613861 C109.36667,50.8613861 110.149996,50.3168371 111.05,49.2277228 C111.950005,48.1386084 112.833329,46.7029792 113.7,44.9207921 C114.566671,43.138605 115.399996,41.1419252 116.2,38.9306931 C117.000004,36.7194609 117.633331,34.4917604 118.1,32.2475248 C117.766665,32.3135317 117.450002,32.3465347 117.15,32.3465347 L116.5,32.3465347 Z" id="Combined-Shape"></path>
                <path d="M160,21.2 C158.859955,22.333339 157.166678,23.766658 154.920118,25.5 C152.673559,27.233342 150.142026,28.633328 147.325444,29.7 C146.587768,31.03334 145.816572,32.2166615 145.011835,33.25 C144.207097,34.2833385 143.469432,34.8 142.798817,34.8 C142.195264,34.533332 141.742606,33.966671 141.440829,33.1 C141.139052,32.233329 140.921106,31.300005 140.786983,30.3 C140.65286,29.299995 140.636095,28.3833375 140.736687,27.55 C140.837279,26.7166625 140.988165,26.200001 141.18935,26 C141.859964,26 142.765281,25.900001 143.905326,25.7 C144.173572,24.633328 144.290928,23.6833375 144.257397,22.85 C144.223866,22.0166625 144.140041,21.400002 144.005918,21 C143.469426,21 142.882647,21.199998 142.245563,21.6 C141.608479,22.000002 140.971404,22.5166635 140.33432,23.15 C139.697236,23.7833365 139.143987,24.533329 138.674557,25.4 C138.205126,26.266671 137.903354,27.166662 137.769231,28.1 C137.568047,29.366673 137.785994,30.7499925 138.423078,32.25 C139.060162,33.7500075 139.797827,35.2499925 140.636095,36.75 C141.474364,38.2500075 142.245559,39.733326 142.949705,41.2 C143.65385,42.666674 143.972387,43.966661 143.905326,45.1 C143.838264,45.900004 143.519727,46.9166605 142.949705,48.15 C142.379682,49.3833395 141.608487,50.5833275 140.636095,51.75 C139.663704,52.9166725 138.490146,53.9166625 137.115385,54.75 C135.740625,55.5833375 134.214999,56 132.538462,56 C131.264294,56 130.107501,55.3500065 129.068048,54.05 C128.028595,52.7499935 127.173574,51.2166755 126.50296,49.45 C125.832345,47.6833245 125.379687,45.8833425 125.144971,44.05 C124.910256,42.2166575 124.960552,40.800005 125.295859,39.8 C125.966474,41.666676 126.855025,43.26666 127.961539,44.6 C129.068054,45.93334 130.174552,46.999996 131.281066,47.8 C132.38758,48.600004 133.393487,49.1166655 134.298817,49.35 C135.204147,49.5833345 135.824457,49.533335 136.159764,49.2 C136.696256,48.599997 136.662726,47.566674 136.059172,46.1 C135.455619,44.633326 134.684424,42.9166765 133.745563,40.95 C132.806702,38.9833235 131.918151,36.8833445 131.079882,34.65 C130.241614,32.4166555 129.856016,30.266677 129.923078,28.2 C129.990139,25.999989 130.442797,24.0833415 131.281066,22.45 C132.119334,20.8166585 133.074946,19.4500055 134.14793,18.35 C135.220913,17.2499945 136.310646,16.4166695 137.41716,15.85 C138.523675,15.2833305 139.412226,15 140.082841,15 C140.753456,15 141.658772,15.2833305 142.798817,15.85 C143.938862,16.4166695 145.062125,17.099996 146.168639,17.9 C147.275154,18.700004 148.214,19.5166625 148.985207,20.35 C149.756414,21.1833375 150.142012,21.866664 150.142012,22.4 C150.142012,22.800002 149.974361,23.499995 149.639054,24.5 C150.779099,24.233332 151.902362,23.9500015 153.008876,23.65 C154.11539,23.3499985 155.138063,23.0500015 156.076923,22.75 C157.015784,22.4499985 157.837275,22.166668 158.54142,21.9 C159.245566,21.633332 159.731754,21.400001 160,21.2 L160,21.2 Z" id="Path"></path>
                <path d="M183,24.029703 C182.666665,24.5577584 182.100004,25.1683134 181.3,25.8613861 C180.499996,26.5544589 179.566672,27.2310198 178.5,27.8910891 C177.433328,28.5511584 176.250006,29.1782149 174.95,29.7722772 C173.649993,30.3663396 172.33334,30.8613842 171,31.2574257 C170.733332,34.0297168 170.133338,36.9339782 169.2,39.970297 C168.266662,43.0066158 167.13334,45.7953668 165.8,48.3366337 C164.46666,50.8779005 163.000008,52.9570876 161.4,54.5742574 C159.799992,56.1914272 158.200008,57 156.6,57 C155.93333,57 155.050006,56.8019822 153.95,56.4059406 C152.849995,56.009899 151.783339,55.3828426 150.75,54.5247525 C149.716662,53.6666624 148.833337,52.6270688 148.1,51.4059406 C147.366663,50.1848124 147,48.7161802 147,47 C147,45.2838198 147.199998,43.3366446 147.6,41.1584158 C148.000002,38.9801871 148.549997,36.7854896 149.25,34.5742574 C149.950004,32.3630252 150.816662,30.2013307 151.85,28.0891089 C152.883339,25.9768871 153.999994,24.0957178 155.2,22.4455446 C156.400006,20.7953713 157.683327,19.4752525 159.05,18.4851485 C160.416674,17.4950446 161.833326,17 163.3,17 C164.033337,17 164.749997,17.2475223 165.45,17.7425743 C166.150004,18.2376262 166.83333,18.8646827 167.5,19.6237624 C168.16667,20.3828421 168.78333,21.2079163 169.35,22.0990099 C169.91667,22.9901035 170.433331,23.7986762 170.9,24.5247525 L171.2,26.8019802 C172.933342,26.6699663 174.649991,26.3729396 176.35,25.9108911 C178.050008,25.4488426 180.266653,24.8217861 183,24.029703 Z M163.5,32.3465347 C162.499995,32.1485139 162,31.1584248 162,29.3762376 C162,28.6501614 162.083333,27.8250871 162.25,26.9009901 C162.416668,25.9768931 162.599999,25.0198069 162.8,24.029703 C161.866662,25.1518208 160.916672,26.7854678 159.95,28.9306931 C158.983329,31.0759183 158.116671,33.3696248 157.35,35.8118812 C156.58333,38.2541376 155.950003,40.6303515 155.45,42.9405941 C154.949998,45.2508366 154.7,47.099003 154.7,48.4851485 C154.7,50.0693149 155.03333,50.8613861 155.7,50.8613861 C156.36667,50.8613861 157.149996,50.3168371 158.05,49.2277228 C158.950005,48.1386084 159.833329,46.7029792 160.7,44.9207921 C161.566671,43.138605 162.399996,41.1419252 163.2,38.9306931 C164.000004,36.7194609 164.633331,34.4917604 165.1,32.2475248 C164.766665,32.3135317 164.450002,32.3465347 164.15,32.3465347 L163.5,32.3465347 Z" id="Combined-Shape"></path>
            </g>
        </g>
    </g>
</svg>